<?xml version="1.0" encoding="UTF-8" standalone="no"?><svg xmlns="http://www.w3.org/2000/svg" xmlns:xlink="http://www.w3.org/1999/xlink" contentScriptType="application/ecmascript" contentStyleType="text/css" height="92px" preserveAspectRatio="none" style="width:190px;height:92px;" version="1.1" viewBox="0 0 190 92" width="190px" zoomAndPan="magnify"><defs><filter height="300%" id="fbbt67duzb5fa" width="300%" x="-1" y="-1"><feGaussianBlur result="blurOut" stdDeviation="2.0"/><feColorMatrix in="blurOut" result="blurOut2" type="matrix" values="0 0 0 0 0 0 0 0 0 0 0 0 0 0 0 0 0 0 .4 0"/><feOffset dx="4.0" dy="4.0" in="blurOut2" result="blurOut3"/><feBlend in="SourceGraphic" in2="blurOut3" mode="normal"/></filter></defs><g><!--class Singleton--><rect fill="#FEFECE" filter="url(#fbbt67duzb5fa)" height="73.6094" id="Singleton" style="stroke: #A80036; stroke-width: 1.5;" width="173" x="6" y="8"/><ellipse cx="58.75" cy="24" fill="#ADD1B2" rx="11" ry="11" style="stroke: #A80036; stroke-width: 1.0;"/><path d="M61.7188,29.6406 Q61.1406,29.9375 60.5,30.0781 Q59.8594,30.2344 59.1563,30.2344 Q56.6563,30.2344 55.3281,28.5938 Q54.0156,26.9375 54.0156,23.8125 Q54.0156,20.6875 55.3281,19.0313 Q56.6563,17.375 59.1563,17.375 Q59.8594,17.375 60.5,17.5313 Q61.1563,17.6875 61.7188,17.9844 L61.7188,20.7031 Q61.0938,20.125 60.5,19.8594 Q59.9063,19.5781 59.2813,19.5781 Q57.9375,19.5781 57.25,20.6563 Q56.5625,21.7188 56.5625,23.8125 Q56.5625,25.9063 57.25,26.9844 Q57.9375,28.0469 59.2813,28.0469 Q59.9063,28.0469 60.5,27.7813 Q61.0938,27.5 61.7188,26.9219 L61.7188,29.6406 Z "/><text fill="#000000" font-family="sans-serif" font-size="12" lengthAdjust="spacingAndGlyphs" textLength="59" x="79.25" y="28.1543">Singleton</text><line style="stroke: #A80036; stroke-width: 1.5;" x1="7" x2="178" y1="40" y2="40"/><line style="stroke: #A80036; stroke-width: 1.5;" x1="7" x2="178" y1="48" y2="48"/><rect fill="#F24D5C" height="6" style="stroke: #C82930; stroke-width: 1.0;" width="6" x="14" y="56.9023"/><text fill="#000000" font-family="sans-serif" font-size="11" lengthAdjust="spacingAndGlyphs" textLength="61" x="26" y="62.2104">Singleton()</text><ellipse cx="17" cy="72.707" fill="#84BE84" rx="3" ry="3" style="stroke: #038048; stroke-width: 1.0;"/><text fill="#000000" font-family="sans-serif" font-size="11" lengthAdjust="spacingAndGlyphs" text-decoration="underline" textLength="147" x="26" y="75.0151">Signleton&amp; get_instance()</text><line style="stroke: #000000; stroke-width: 1.0;" x1="26" x2="173" y1="77.0151" y2="77.0151"/><!--
@startuml singleton_class

class Singleton
{
	-Singleton()
	+{static} Signleton& get_instance()
}

@enduml

PlantUML version 1.2018.13(Mon Nov 26 19:11:51 EET 2018)
(GPL source distribution)
Java Runtime: OpenJDK Runtime Environment
JVM: OpenJDK 64-Bit Server VM
Java Version: 11.0.10+9-Ubuntu-0ubuntu1.20.04
Operating System: Linux
OS Version: 5.8.0-41-generic
Default Encoding: UTF-8
Language: en
Country: US
--></g></svg>